<svg width="90" height="90" viewBox="0 0 90 90" fill="none" xmlns="http://www.w3.org/2000/svg">
<circle cx="45" cy="45" r="45" fill="#121936"/>
<path fill-rule="evenodd" clip-rule="evenodd" d="M60.2786 54.9327L51.6178 47L60.2786 39.0673L59.0976 37.8053L46.5 49.3438L33.9024 37.8053L32.7214 39.0673L41.3822 47L32.7214 54.9327L33.9024 56.1947L42.6617 48.1719L46.5 51.6875L50.3383 48.1719L59.0976 56.1947L60.2786 54.9327ZM31.1519 34.5C29.5339 34.5 28.2222 35.8977 28.2222 37.6157V56.3843C28.2222 58.105 29.5233 59.5 31.1519 59.5H61.8481C63.4661 59.5 64.7778 58.1023 64.7778 56.3843V37.6157C64.7778 35.895 63.4768 34.5 61.8481 34.5H31.1519Z" fill="#FFBD30"/>
</svg>
